<svg width="24" height="24" viewBox="0 0 24 24" fill="none" xmlns="http://www.w3.org/2000/svg">
<path fill-rule="evenodd" clip-rule="evenodd" d="M20 12C20 14.1217 19.1571 16.1566 17.6569 17.6569C16.1566 19.1571 14.1217 20 12 20C9.87827 20 7.84344 19.1571 6.34315 17.6569C4.84285 16.1566 4 14.1217 4 12C4 9.87827 4.84285 7.84344 6.34315 6.34315C7.84344 4.84285 9.87827 4 12 4C14.1217 4 16.1566 4.84285 17.6569 6.34315C19.1571 7.84344 20 9.87827 20 12ZM12 9C11.8243 8.99983 11.6517 9.04595 11.4994 9.13373C11.3472 9.22151 11.2209 9.34784 11.133 9.5C11.0696 9.61788 10.9831 9.72182 10.8788 9.80566C10.7744 9.8895 10.6543 9.95154 10.5255 9.9881C10.3967 10.0247 10.2619 10.035 10.1291 10.0185C9.99627 10.002 9.86809 9.95897 9.75218 9.89201C9.63628 9.82505 9.53499 9.7355 9.45433 9.62867C9.37367 9.52184 9.31529 9.3999 9.28263 9.27008C9.24997 9.14027 9.24371 9.00522 9.26421 8.87294C9.28472 8.74065 9.33157 8.61384 9.402 8.5C9.73222 7.92811 10.2419 7.48116 10.852 7.22846C11.4621 6.97576 12.1386 6.93144 12.7765 7.10236C13.4143 7.27328 13.978 7.64989 14.38 8.1738C14.782 8.6977 15 9.33962 15 10C15.0002 10.6206 14.8079 11.226 14.4498 11.7329C14.0916 12.2397 13.5851 12.623 13 12.83V13C13 13.2652 12.8946 13.5196 12.7071 13.7071C12.5196 13.8946 12.2652 14 12 14C11.7348 14 11.4804 13.8946 11.2929 13.7071C11.1054 13.5196 11 13.2652 11 13V12C11 11.7348 11.1054 11.4804 11.2929 11.2929C11.4804 11.1054 11.7348 11 12 11C12.2652 11 12.5196 10.8946 12.7071 10.7071C12.8946 10.5196 13 10.2652 13 10C13 9.73478 12.8946 9.48043 12.7071 9.29289C12.5196 9.10536 12.2652 9 12 9ZM12 17C12.2652 17 12.5196 16.8946 12.7071 16.7071C12.8946 16.5196 13 16.2652 13 16C13 15.7348 12.8946 15.4804 12.7071 15.2929C12.5196 15.1054 12.2652 15 12 15C11.7348 15 11.4804 15.1054 11.2929 15.2929C11.1054 15.4804 11 15.7348 11 16C11 16.2652 11.1054 16.5196 11.2929 16.7071C11.4804 16.8946 11.7348 17 12 17Z" fill="#5B6871"/>
</svg>
